<svg width="502" height="79" viewBox="0 0 502 79" fill="none" xmlns="http://www.w3.org/2000/svg">
<path d="M56.5257 23.296L32.1897 78H24.5977L0.365719 23.296H8.06172L28.5497 69.888L49.2457 23.296H56.5257ZM66.9249 23.296H74.3089V78H66.9249V23.296ZM70.6689 11.336C69.1436 11.336 67.8609 10.816 66.8209 9.776C65.7809 8.736 65.2609 7.488 65.2609 6.032C65.2609 4.64533 65.7809 3.432 66.8209 2.39199C67.8609 1.35199 69.1436 0.831995 70.6689 0.831995C72.1942 0.831995 73.4769 1.35199 74.5169 2.39199C75.5569 3.36266 76.0769 4.54133 76.0769 5.928C76.0769 7.45333 75.5569 8.736 74.5169 9.776C73.4769 10.816 72.1942 11.336 70.6689 11.336ZM142.487 52.936H96.7266C97.1426 58.6213 99.3266 63.232 103.279 66.768C107.231 70.2347 112.223 71.968 118.255 71.968C121.652 71.968 124.772 71.3787 127.615 70.2C130.457 68.952 132.919 67.1493 134.999 64.792L139.159 69.576C136.732 72.488 133.681 74.7067 130.007 76.232C126.401 77.7573 122.415 78.52 118.047 78.52C112.431 78.52 107.439 77.3413 103.071 74.984C98.7719 72.5573 95.4093 69.2293 92.9826 65C90.5559 60.7707 89.3426 55.9867 89.3426 50.648C89.3426 45.3093 90.4866 40.5253 92.7746 36.296C95.1319 32.0667 98.3213 28.7733 102.343 26.416C106.433 24.0587 111.009 22.88 116.071 22.88C121.132 22.88 125.673 24.0587 129.695 26.416C133.716 28.7733 136.871 32.0667 139.159 36.296C141.447 40.456 142.591 45.24 142.591 50.648L142.487 52.936ZM116.071 29.224C110.801 29.224 106.364 30.9227 102.759 34.32C99.2226 37.648 97.2119 42.016 96.7266 47.424H135.519C135.033 42.016 132.988 37.648 129.383 34.32C125.847 30.9227 121.409 29.224 116.071 29.224ZM236.893 23.296L216.197 78H209.229L191.965 33.176L174.701 78H167.733L147.141 23.296H154.213L171.373 69.784L188.949 23.296H195.293L212.765 69.784L230.133 23.296H236.893ZM262.259 16.64H238.131V5.2H299.907V16.64H275.779V78H262.259V16.64ZM361.253 22.464V78H348.877V70.928C346.797 73.424 344.197 75.3653 341.077 76.752C337.957 78.0693 334.594 78.728 330.989 78.728C323.57 78.728 317.712 76.6827 313.413 72.592C309.184 68.432 307.069 62.296 307.069 54.184V22.464H320.069V52.416C320.069 57.408 321.178 61.152 323.397 63.648C325.685 66.0747 328.909 67.288 333.069 67.288C337.714 67.288 341.389 65.8667 344.093 63.024C346.866 60.112 348.253 55.952 348.253 50.544V22.464H361.253ZM409.058 21.84C414.466 21.84 419.285 23.0187 423.514 25.376C427.813 27.7333 431.175 31.0613 433.602 35.36C436.029 39.6587 437.242 44.616 437.242 50.232C437.242 55.848 436.029 60.84 433.602 65.208C431.175 69.5067 427.813 72.8347 423.514 75.192C419.285 77.5493 414.466 78.728 409.058 78.728C405.245 78.728 401.743 78.0693 398.554 76.752C395.434 75.4347 392.799 73.4587 390.65 70.824V78H378.274V0.831995H391.274V29.224C393.493 26.7973 396.093 24.96 399.074 23.712C402.125 22.464 405.453 21.84 409.058 21.84ZM407.602 67.6C412.386 67.6 416.303 66.0053 419.354 62.816C422.474 59.6267 424.034 55.432 424.034 50.232C424.034 45.032 422.474 40.8373 419.354 37.648C416.303 34.4587 412.386 32.864 407.602 32.864C404.482 32.864 401.674 33.592 399.178 35.048C396.682 36.4347 394.706 38.4453 393.25 41.08C391.794 43.7147 391.066 46.7653 391.066 50.232C391.066 53.6987 391.794 56.7493 393.25 59.384C394.706 62.0187 396.682 64.064 399.178 65.52C401.674 66.9067 404.482 67.6 407.602 67.6ZM501.779 50.544C501.779 51.4453 501.71 52.728 501.571 54.392H457.995C458.758 58.4827 460.734 61.7413 463.923 64.168C467.182 66.5253 471.203 67.704 475.987 67.704C482.088 67.704 487.115 65.6933 491.067 61.672L498.035 69.68C495.539 72.6613 492.384 74.9147 488.571 76.44C484.758 77.9653 480.459 78.728 475.675 78.728C469.574 78.728 464.2 77.5147 459.555 75.088C454.91 72.6613 451.304 69.2987 448.739 65C446.243 60.632 444.995 55.7093 444.995 50.232C444.995 44.824 446.208 39.9707 448.635 35.672C451.131 31.304 454.563 27.9067 458.931 25.48C463.299 23.0533 468.222 21.84 473.699 21.84C479.107 21.84 483.926 23.0533 488.155 25.48C492.454 27.8373 495.782 31.2 498.139 35.568C500.566 39.8667 501.779 44.8587 501.779 50.544ZM473.699 32.24C469.539 32.24 466.003 33.488 463.091 35.984C460.248 38.4107 458.515 41.6693 457.891 45.76H489.403C488.848 41.7387 487.15 38.48 484.307 35.984C481.464 33.488 477.928 32.24 473.699 32.24Z" fill="black"/>
</svg>
