<svg width="716" height="141" viewBox="0 0 716 141" fill="none" xmlns="http://www.w3.org/2000/svg">
<path d="M91.5257 51.296L67.1897 106H59.5977L35.3657 51.296H43.0617L63.5497 97.888L84.2457 51.296H91.5257ZM101.925 51.296H109.309V106H101.925V51.296ZM105.669 39.336C104.144 39.336 102.861 38.816 101.821 37.776C100.781 36.736 100.261 35.488 100.261 34.032C100.261 32.6453 100.781 31.432 101.821 30.392C102.861 29.352 104.144 28.832 105.669 28.832C107.194 28.832 108.477 29.352 109.517 30.392C110.557 31.3627 111.077 32.5413 111.077 33.928C111.077 35.4533 110.557 36.736 109.517 37.776C108.477 38.816 107.194 39.336 105.669 39.336ZM177.487 80.936H131.727C132.143 86.6213 134.327 91.232 138.279 94.768C142.231 98.2347 147.223 99.968 153.255 99.968C156.652 99.968 159.772 99.3787 162.615 98.2C165.457 96.952 167.919 95.1493 169.999 92.792L174.159 97.576C171.732 100.488 168.681 102.707 165.007 104.232C161.401 105.757 157.415 106.52 153.047 106.52C147.431 106.52 142.439 105.341 138.071 102.984C133.772 100.557 130.409 97.2293 127.983 93C125.556 88.7707 124.343 83.9867 124.343 78.648C124.343 73.3093 125.487 68.5253 127.775 64.296C130.132 60.0667 133.321 56.7733 137.343 54.416C141.433 52.0587 146.009 50.88 151.071 50.88C156.132 50.88 160.673 52.0587 164.695 54.416C168.716 56.7733 171.871 60.0667 174.159 64.296C176.447 68.456 177.591 73.24 177.591 78.648L177.487 80.936ZM151.071 57.224C145.801 57.224 141.364 58.9227 137.759 62.32C134.223 65.648 132.212 70.016 131.727 75.424H170.519C170.033 70.016 167.988 65.648 164.383 62.32C160.847 58.9227 156.409 57.224 151.071 57.224ZM271.893 51.296L251.197 106H244.229L226.965 61.176L209.701 106H202.733L182.141 51.296H189.213L206.373 97.784L223.949 51.296H230.293L247.765 97.784L265.133 51.296H271.893ZM297.259 44.64H273.131V33.2H334.907V44.64H310.779V106H297.259V44.64ZM396.253 50.464V106H383.877V98.928C381.797 101.424 379.197 103.365 376.077 104.752C372.957 106.069 369.594 106.728 365.989 106.728C358.57 106.728 352.712 104.683 348.413 100.592C344.184 96.432 342.069 90.296 342.069 82.184V50.464H355.069V80.416C355.069 85.408 356.178 89.152 358.397 91.648C360.685 94.0747 363.909 95.288 368.069 95.288C372.714 95.288 376.389 93.8667 379.093 91.024C381.866 88.112 383.253 83.952 383.253 78.544V50.464H396.253ZM444.058 49.84C449.466 49.84 454.285 51.0187 458.514 53.376C462.813 55.7333 466.175 59.0613 468.602 63.36C471.029 67.6587 472.242 72.616 472.242 78.232C472.242 83.848 471.029 88.84 468.602 93.208C466.175 97.5067 462.813 100.835 458.514 103.192C454.285 105.549 449.466 106.728 444.058 106.728C440.245 106.728 436.743 106.069 433.554 104.752C430.434 103.435 427.799 101.459 425.65 98.824V106H413.274V28.832H426.274V57.224C428.493 54.7973 431.093 52.96 434.074 51.712C437.125 50.464 440.453 49.84 444.058 49.84ZM442.602 95.6C447.386 95.6 451.303 94.0053 454.354 90.816C457.474 87.6267 459.034 83.432 459.034 78.232C459.034 73.032 457.474 68.8373 454.354 65.648C451.303 62.4587 447.386 60.864 442.602 60.864C439.482 60.864 436.674 61.592 434.178 63.048C431.682 64.4347 429.706 66.4453 428.25 69.08C426.794 71.7147 426.066 74.7653 426.066 78.232C426.066 81.6987 426.794 84.7493 428.25 87.384C429.706 90.0187 431.682 92.064 434.178 93.52C436.674 94.9067 439.482 95.6 442.602 95.6ZM536.779 78.544C536.779 79.4453 536.71 80.728 536.571 82.392H492.995C493.758 86.4827 495.734 89.7413 498.923 92.168C502.182 94.5253 506.203 95.704 510.987 95.704C517.088 95.704 522.115 93.6933 526.067 89.672L533.035 97.68C530.539 100.661 527.384 102.915 523.571 104.44C519.758 105.965 515.459 106.728 510.675 106.728C504.574 106.728 499.2 105.515 494.555 103.088C489.91 100.661 486.304 97.2987 483.739 93C481.243 88.632 479.995 83.7093 479.995 78.232C479.995 72.824 481.208 67.9707 483.635 63.672C486.131 59.304 489.563 55.9067 493.931 53.48C498.299 51.0533 503.222 49.84 508.699 49.84C514.107 49.84 518.926 51.0533 523.155 53.48C527.454 55.8373 530.782 59.2 533.139 63.568C535.566 67.8667 536.779 72.8587 536.779 78.544ZM508.699 60.24C504.539 60.24 501.003 61.488 498.091 63.984C495.248 66.4107 493.515 69.6693 492.891 73.76H524.403C523.848 69.7387 522.15 66.48 519.307 63.984C516.464 61.488 512.928 60.24 508.699 60.24Z" fill="black"/>
<path d="M604.337 96.9047C598.834 88.8201 595.752 79.4013 595.464 69.7931C595.175 60.1848 597.694 50.8006 602.713 42.7809L645.239 70.1001L604.337 96.9047Z" fill="#8FBFE0"/>
<rect x="568" y="112.823" width="99.8403" height="11.8727" rx="5.93634" transform="rotate(-29.8832 568 112.823)" fill="#0A4272"/>
<rect x="574.021" y="18.8233" width="100" height="12" rx="6" transform="rotate(30.1168 574.021 18.8233)" fill="#DD0426"/>
</svg>
